HIERARCHY
ROOT Hips
{
	OFFSET 0.000000 83.214638 0.000000
	CHANNELS 6 Xposition Yposition Zposition Xrotation Yrotation Zrotation
	JOINT Pelvis
	{
		OFFSET 0.000000 0.000000 0.000000
		CHANNELS 3 Xrotation Yrotation Zrotation
		JOINT LeftUpLeg
		{
			OFFSET 8.479700 -4.795502 -0.379100
			CHANNELS 3 Xrotation Yrotation Zrotation
			JOINT LeftLeg
			{
				OFFSET 0.024144 -32.555107 0.112900
				CHANNELS 3 Xrotation Yrotation Zrotation
				JOINT LeftFoot
				{
					OFFSET -0.024144 -32.638630 -3.012600
					CHANNELS 3 Xrotation Yrotation Zrotation
					JOINT LeftToeBase
					{
						OFFSET 0.970200 -13.225400 11.864200
						CHANNELS 3 Xrotation Yrotation Zrotation
						End Site
						{
							OFFSET 0.000000 12.319262 0.000000
						}
					}
					JOINT LFootTongue
					{
						OFFSET 1.142400 -1.059800 6.665200
						CHANNELS 3 Xrotation Yrotation Zrotation
						End Site
						{
							OFFSET 0.000000 12.319262 0.000000
						}
					}
				}
				JOINT LeftPantLeg
				{
					OFFSET 0.918482 -16.533964 -2.284700
					CHANNELS 3 Xrotation Yrotation Zrotation
					End Site
					{
						OFFSET 0.350399 24.744368 0.000000
					}
				}
			}
		}
		JOINT RightUpLeg
		{
			OFFSET -8.479700 -4.795502 -0.379100
			CHANNELS 3 Xrotation Yrotation Zrotation
			JOINT RightLeg
			{
				OFFSET -0.023144 -32.555092 0.112900
				CHANNELS 3 Xrotation Yrotation Zrotation
				JOINT RightFoot
				{
					OFFSET 0.023144 -32.638641 -3.012700
					CHANNELS 3 Xrotation Yrotation Zrotation
					JOINT RightToeBase
					{
						OFFSET -0.970200 -13.225400 11.864200
						CHANNELS 3 Xrotation Yrotation Zrotation
						End Site
						{
							OFFSET 0.000000 12.319244 0.000000
						}
					}
					JOINT RFootTongue
					{
						OFFSET -1.142200 -1.059800 6.665200
						CHANNELS 3 Xrotation Yrotation Zrotation
						End Site
						{
							OFFSET 0.000000 12.319243 0.000000
						}
					}
				}
				JOINT RightPantLeg
				{
					OFFSET -0.919482 -16.533978 -2.284800
					CHANNELS 3 Xrotation Yrotation Zrotation
					End Site
					{
						OFFSET -0.350400 24.744419 0.000000
					}
				}
			}
		}
	}
	JOINT Spine
	{
		OFFSET 0.000000 7.722000 1.166200
		CHANNELS 3 Xrotation Yrotation Zrotation
		JOINT Spine1
		{
			OFFSET 0.000000 12.024101 0.248800
			CHANNELS 3 Xrotation Yrotation Zrotation
			JOINT Spine2
			{
				OFFSET 0.000000 11.502998 -0.491200
				CHANNELS 3 Xrotation Yrotation Zrotation
				JOINT Neck
				{
					OFFSET 0.000000 18.430702 -3.123100
					CHANNELS 3 Xrotation Yrotation Zrotation
					JOINT Head
					{
						OFFSET 0.000000 9.051102 1.034000
						CHANNELS 3 Xrotation Yrotation Zrotation
						JOINT HairB
						{
							OFFSET 0.208400 24.786102 24.822300
							CHANNELS 3 Xrotation Yrotation Zrotation
							End Site
							{
								OFFSET 0.000000 32.263779 0.000000
							}
						}
						JOINT HairA
						{
							OFFSET -7.081100 24.428299 23.196600
							CHANNELS 3 Xrotation Yrotation Zrotation
							End Site
							{
								OFFSET 0.000000 32.263779 0.000000
							}
						}
						JOINT Hat
						{
							OFFSET 16.728800 15.048294 -15.439601
							CHANNELS 3 Xrotation Yrotation Zrotation
							End Site
							{
								OFFSET 0.000000 32.263779 0.000000
							}
						}
					}
				}
				JOINT LeftShoulder
				{
					OFFSET 6.197800 13.665199 -4.064700
					CHANNELS 3 Xrotation Yrotation Zrotation
					JOINT LeftArm
					{
						OFFSET 7.778100 -0.187103 -1.709300
						CHANNELS 3 Xrotation Yrotation Zrotation
						JOINT LeftForeArm
						{
							OFFSET 22.049376 0.000000 0.000000
							CHANNELS 3 Xrotation Yrotation Zrotation
							JOINT LeftHand
							{
								OFFSET 23.009392 0.000000 0.000000
								CHANNELS 3 Xrotation Yrotation Zrotation
								JOINT LeftHandThumb1
								{
									OFFSET 3.507191 -2.063065 3.133727
									CHANNELS 3 Xrotation Yrotation Zrotation
									JOINT LeftHandThumb2
									{
										OFFSET 3.101337 -1.790558 1.790558
										CHANNELS 3 Xrotation Yrotation Zrotation
										JOINT LeftHandThumb3
										{
											OFFSET 3.058640 -1.765907 1.765906
											CHANNELS 3 Xrotation Yrotation Zrotation
											End Site
											{
												OFFSET -0.415260 3.926476 -0.049563
											}
										}
									}
								}
								JOINT LeftHandIndex1
								{
									OFFSET 11.334419 -0.901459 3.706815
									CHANNELS 3 Xrotation Yrotation Zrotation
									JOINT LeftHandIndex2
									{
										OFFSET 3.283112 0.000000 0.000000
										CHANNELS 3 Xrotation Yrotation Zrotation
										JOINT LeftHandIndex3
										{
											OFFSET 3.323853 0.000000 0.000000
											CHANNELS 3 Xrotation Yrotation Zrotation
											End Site
											{
												OFFSET -1.135597 3.097809 0.402452
											}
										}
									}
								}
								JOINT LeftHandMiddle1
								{
									OFFSET 11.335861 0.000000 0.000000
									CHANNELS 3 Xrotation Yrotation Zrotation
									JOINT LeftHandMiddle2
									{
										OFFSET 3.410492 0.000000 0.000000
										CHANNELS 3 Xrotation Yrotation Zrotation
										JOINT LeftHandMiddle3
										{
											OFFSET 3.312172 0.000000 0.000000
											CHANNELS 3 Xrotation Yrotation Zrotation
											End Site
											{
												OFFSET -1.150200 3.080154 0.400270
											}
										}
									}
								}
								JOINT LeftHandRing1
								{
									OFFSET 11.514786 -0.013176 -3.003090
									CHANNELS 3 Xrotation Yrotation Zrotation
									JOINT LeftHandRing2
									{
										OFFSET 3.053307 0.000000 0.000000
										CHANNELS 3 Xrotation Yrotation Zrotation
										JOINT LeftHandRing3
										{
											OFFSET 3.295807 0.000000 0.000000
											CHANNELS 3 Xrotation Yrotation Zrotation
											End Site
											{
												OFFSET -1.281006 3.013344 0.375733
											}
										}
									}
								}
								JOINT LeftHandPinky1
								{
									OFFSET 10.518692 -0.960396 -5.730441
									CHANNELS 3 Xrotation Yrotation Zrotation
									JOINT LeftHandPinky2
									{
										OFFSET 2.861649 0.000000 0.000000
										CHANNELS 3 Xrotation Yrotation Zrotation
										JOINT LeftHandPinky3
										{
											OFFSET 2.863380 0.000000 0.000000
											CHANNELS 3 Xrotation Yrotation Zrotation
											End Site
											{
												OFFSET -0.843597 2.711159 0.369971
											}
										}
									}
								}
							}
							JOINT LSleeve
							{
								OFFSET 6.676277 -0.344902 -1.011730
								CHANNELS 3 Xrotation Yrotation Zrotation
								End Site
								{
									OFFSET 0.000000 14.885353 0.000000
								}
							}
						}
					}
				}
				JOINT RightShoulder
				{
					OFFSET -6.197800 13.665199 -4.064700
					CHANNELS 3 Xrotation Yrotation Zrotation
					JOINT RightArm
					{
						OFFSET -7.778100 -0.187103 -1.709300
						CHANNELS 3 Xrotation Yrotation Zrotation
						JOINT RightForeArm
						{
							OFFSET -22.049376 0.000000 0.000000
							CHANNELS 3 Xrotation Yrotation Zrotation
							JOINT RightHand
							{
								OFFSET -23.009392 0.000000 0.000000
								CHANNELS 3 Xrotation Yrotation Zrotation
								JOINT RightHandThumb1
								{
									OFFSET -3.507191 -2.063065 3.133727
									CHANNELS 3 Xrotation Yrotation Zrotation
									JOINT RightHandThumb2
									{
										OFFSET -3.101337 -1.790558 1.790558
										CHANNELS 3 Xrotation Yrotation Zrotation
										JOINT RightHandThumb3
										{
											OFFSET -3.058640 -1.765907 1.765906
											CHANNELS 3 Xrotation Yrotation Zrotation
											End Site
											{
												OFFSET 0.415260 3.926476 -0.049563
											}
										}
									}
								}
								JOINT RightHandIndex1
								{
									OFFSET -11.334419 -0.901459 3.706815
									CHANNELS 3 Xrotation Yrotation Zrotation
									JOINT RightHandIndex2
									{
										OFFSET -3.283112 0.000000 0.000000
										CHANNELS 3 Xrotation Yrotation Zrotation
										JOINT RightHandIndex3
										{
											OFFSET -3.323853 0.000000 0.000000
											CHANNELS 3 Xrotation Yrotation Zrotation
											End Site
											{
												OFFSET 1.135597 3.097809 0.402452
											}
										}
									}
								}
								JOINT RightHandMiddle1
								{
									OFFSET -11.335861 0.000000 0.000000
									CHANNELS 3 Xrotation Yrotation Zrotation
									JOINT RightHandMiddle2
									{
										OFFSET -3.410492 0.000000 0.000000
										CHANNELS 3 Xrotation Yrotation Zrotation
										JOINT RightHandMiddle3
										{
											OFFSET -3.312172 0.000000 0.000000
											CHANNELS 3 Xrotation Yrotation Zrotation
											End Site
											{
												OFFSET 1.150200 3.080154 0.400270
											}
										}
									}
								}
								JOINT RightHandRing1
								{
									OFFSET -11.514786 -0.013176 -3.003090
									CHANNELS 3 Xrotation Yrotation Zrotation
									JOINT RightHandRing2
									{
										OFFSET -3.053307 0.000000 0.000000
										CHANNELS 3 Xrotation Yrotation Zrotation
										JOINT RightHandRing3
										{
											OFFSET -3.295807 0.000000 0.000000
											CHANNELS 3 Xrotation Yrotation Zrotation
											End Site
											{
												OFFSET 1.281006 3.013344 0.375733
											}
										}
									}
								}
								JOINT RightHandPinky1
								{
									OFFSET -10.518692 -0.960396 -5.730441
									CHANNELS 3 Xrotation Yrotation Zrotation
									JOINT RightHandPinky2
									{
										OFFSET -2.861649 0.000000 0.000000
										CHANNELS 3 Xrotation Yrotation Zrotation
										JOINT RightHandPinky3
										{
											OFFSET -2.863380 0.000000 0.000000
											CHANNELS 3 Xrotation Yrotation Zrotation
											End Site
											{
												OFFSET 0.843597 2.711159 0.369971
											}
										}
									}
								}
							}
							JOINT RSleeve
							{
								OFFSET -6.676277 -0.344902 -1.011730
								CHANNELS 3 Xrotation Yrotation Zrotation
								End Site
								{
									OFFSET 0.000000 14.885353 0.000000
								}
							}
						}
					}
				}
				JOINT Backpack
				{
					OFFSET 0.000000 -2.471497 36.677502
					CHANNELS 3 Xrotation Yrotation Zrotation
					End Site
					{
						OFFSET 0.000000 20.427315 0.000000
					}
				}
				JOINT Hood
				{
					OFFSET 0.000000 18.754097 -10.431000
					CHANNELS 3 Xrotation Yrotation Zrotation
					JOINT Hood1
					{
						OFFSET 0.000000 -5.011002 -7.685901
						CHANNELS 3 Xrotation Yrotation Zrotation
						End Site
						{
							OFFSET 0.000000 9.175140 0.000000
						}
					}
				}
				JOINT LHoodieString
				{
					OFFSET 5.250500 16.397697 3.089900
					CHANNELS 3 Xrotation Yrotation Zrotation
					JOINT LHoodieString1
					{
						OFFSET 0.257700 -6.364304 3.694600
						CHANNELS 3 Xrotation Yrotation Zrotation
						JOINT LHoodieString2
						{
							OFFSET 0.000000 -9.643799 2.679100
							CHANNELS 3 Xrotation Yrotation Zrotation
							End Site
							{
								OFFSET 0.000000 10.009018 0.000000
							}
						}
					}
				}
				JOINT RHoodieString
				{
					OFFSET -5.250500 16.397697 3.089900
					CHANNELS 3 Xrotation Yrotation Zrotation
					JOINT RHoodieString1
					{
						OFFSET -0.257700 -6.364304 3.694600
						CHANNELS 3 Xrotation Yrotation Zrotation
						JOINT RHoodieString2
						{
							OFFSET 0.000000 -9.643799 2.679100
							CHANNELS 3 Xrotation Yrotation Zrotation
							End Site
							{
								OFFSET 0.000000 10.009018 0.000000
							}
						}
					}
				}
			}
			JOINT LBackpack_Strap
			{
				OFFSET 15.223200 -7.719803 -6.610900
				CHANNELS 3 Xrotation Yrotation Zrotation
				End Site
				{
					OFFSET 0.000000 16.040596 0.000000
				}
			}
			JOINT RBackpack_Strap
			{
				OFFSET -15.223000 -7.719803 -6.610900
				CHANNELS 3 Xrotation Yrotation Zrotation
				End Site
				{
					OFFSET 0.000000 16.040596 0.000000
				}
			}
		}
	}
	JOINT BoyFacialAnim_Joint
	{
		OFFSET 1.000000 -82.208099 -1.550900
		CHANNELS 3 Xrotation Yrotation Zrotation
		End Site
		{
			OFFSET 0.000000 30.012791 0.000000
		}
	}
}
MOTION
Frames: 4
Frame Time: 0.033333
0.210868 46.633347 0.893475 -7.934944 3.757879 3.386374 0.000001 0.000000 -0.000000 -86.630083 1.000938 20.659883 100.695628 5.182301 -7.605066 -6.501592 5.794727 6.965986 0.000000 0.000002 0.000000 0.000000 0.000002 -0.000000 0.000001 -0.000002 0.000001 -90.893002 -0.965421 -20.553894 96.347072 -4.831897 2.566419 0.030326 -0.055442 -9.235009 0.000000 -0.000002 -0.000000 0.000000 -0.000002 -0.000000 0.000000 0.000001 0.000001 17.321904 3.863455 -4.983921 5.283985 0.535450 1.822553 5.265684 0.642466 1.837671 0.588919 -1.185940 -1.060182 -12.466384 -8.880107 1.149133 0.000000 0.000000 0.000000 0.000000 0.000000 0.000000 0.000000 0.000000 0.000000 0.835935 -5.280707 5.704457 -51.844647 -35.032105 -71.193418 0.000194 -76.382340 0.000199 -39.749806 17.361267 20.218786 8.033892 -4.085224 -15.484715 5.498221 28.158546 2.336849 -0.000001 0.000001 0.000001 -0.526111 -14.178556 -3.001180 2.378819 5.209185 -49.065098 0.000001 -0.000000 -0.000004 2.112767 4.966896 -46.065784 2.115555 4.969561 -46.097981 0.000000 -0.000001 0.000002 3.235040 5.839728 -57.941130 3.235015 5.839738 -57.941109 -0.000000 0.000001 -0.000002 8.180591 7.891762 -68.571793 4.391818 2.329789 -68.807790 -0.000001 -0.000000 -0.000000 0.000001 0.000001 0.000001 1.693699 9.428733 -11.164677 -40.426206 13.117521 69.549009 0.037065 90.047875 -0.032691 -39.022230 -22.593432 -26.751445 -9.351081 6.858425 10.462938 14.969512 -22.935340 -0.059883 -0.000000 0.000001 0.000000 0.486936 13.793659 -1.232308 2.259548 -5.133538 47.491166 -0.000001 -0.000001 0.000005 3.931561 -6.262119 64.212924 3.931582 -6.262101 64.212944 -0.000000 0.000001 -0.000002 4.016477 -6.302175 64.988854 4.016468 -6.302181 64.988861 0.000000 -0.000000 0.000000 4.517407 -6.511092 69.475865 4.517434 -6.511102 69.475892 0.000001 0.000000 -0.000001 0.000001 0.000002 0.000002 0.000000 0.000000 -0.000000 0.000000 0.000000 -0.000000 0.000000 0.000000 -0.000000 0.000000 0.000000 -0.000000 0.000000 0.000000 -0.000000 0.000000 0.000000 0.000000 0.000000 0.000000 -0.000000 0.000000 0.000000 -0.000000 0.000000 0.000000 0.000000 0.000000 0.000000 -0.000000 0.000000 0.000000 -0.000000 0.000001 0.000000 -0.000000 
0.222084 46.637634 0.898464 -7.911507 3.745350 3.387659 0.000000 0.000000 -0.000000 -86.642596 1.026485 20.695168 100.697424 5.151862 -7.622939 -6.527978 5.801986 7.003719 -0.000000 -0.000000 0.000000 -0.000000 -0.000000 -0.000000 0.000001 0.000003 0.000000 -90.909620 -0.957321 -20.552816 96.340720 -4.829032 2.564419 0.033909 -0.047443 -9.227600 0.000000 0.000000 0.000000 0.000000 0.000000 0.000000 0.000000 0.000000 0.000000 17.358135 3.875050 -5.013261 5.274073 0.537148 1.835507 5.255600 0.644774 1.850606 0.597452 -1.194328 -1.055427 -12.513393 -8.889691 1.099213 -0.000000 0.000000 -0.000000 -0.000000 0.000000 -0.000000 -0.000000 0.000000 -0.000000 0.842945 -5.326204 5.753316 -51.927801 -34.993719 -71.132875 -0.000025 -76.065235 -0.000043 -40.032073 17.782840 19.790415 8.033895 -4.085224 -15.484713 5.448478 27.877528 2.731704 -0.000002 -0.000000 0.000001 -0.526154 -14.178571 -3.001308 2.344843 5.179612 -48.689663 -0.000002 -0.000000 -0.000004 2.112767 4.966893 -46.065781 2.115555 4.969562 -46.097985 0.000001 -0.000001 -0.000002 3.235042 5.839727 -57.941130 3.235016 5.839735 -57.941116 -0.000000 0.000000 -0.000000 8.180592 7.891759 -68.571800 4.391817 2.329788 -68.807783 -0.000001 0.000000 -0.000000 -0.000003 0.000001 0.000000 1.692315 9.433936 -11.123624 -40.343923 13.289422 69.497154 0.162669 90.005986 -0.089834 -39.566777 -22.876595 -27.422684 -9.351063 6.858429 10.462927 15.001083 -23.602873 -1.297576 0.000001 -0.000002 -0.000001 0.327010 13.718752 -0.559766 2.590638 -5.417190 51.091038 -0.000000 0.000000 -0.000000 3.931574 -6.262116 64.212903 3.931582 -6.262099 64.212951 -0.000001 0.000002 -0.000002 4.016490 -6.302153 64.988820 4.016469 -6.302180 64.988854 0.000002 -0.000001 0.000004 4.517425 -6.511075 69.475830 4.517433 -6.511102 69.475899 -0.000001 -0.000001 0.000004 -0.000000 0.000002 0.000002 0.000000 -0.000000 0.000000 0.000000 -0.000000 0.000000 0.000000 -0.000000 0.000000 0.000000 -0.000000 0.000000 0.000000 -0.000000 0.000000 -0.000001 0.000001 -0.000000 0.000000 -0.000000 0.000000 0.000000 -0.000000 0.000000 -0.000001 0.000001 -0.000000 0.000000 -0.000000 -0.000000 0.000000 -0.000000 -0.000000 0.000000 0.000000 -0.000000 
0.231158 46.639961 0.903683 -7.883791 3.742751 3.383355 0.000000 -0.000001 -0.000000 -86.665648 1.032235 20.697058 100.702322 5.142531 -7.627727 -6.542991 5.811545 7.013985 0.000000 0.000003 0.000000 0.000000 0.000003 0.000000 -0.000001 0.000002 0.000001 -90.932692 -0.955798 -20.564788 96.339019 -4.824864 2.567279 0.033542 -0.037038 -9.226895 -0.000000 -0.000002 0.000000 -0.000000 -0.000002 0.000000 0.000001 -0.000001 0.000000 17.391569 3.883219 -5.018477 5.265172 0.538440 1.846383 5.246581 0.646342 1.861465 0.602039 -1.208437 -1.037803 -12.557852 -8.909689 1.041511 0.000000 0.000000 -0.000000 0.000000 0.000000 -0.000000 0.000000 0.000000 -0.000000 0.850646 -5.375078 5.808129 -51.961798 -34.936862 -71.186629 0.000056 -75.861661 0.000073 -40.154293 17.975253 19.606219 8.033897 -4.085224 -15.484713 5.411888 27.403361 3.243349 -0.000002 -0.000004 0.000001 -0.525537 -14.178893 -2.998819 2.277169 5.119594 -47.935654 0.000001 0.000000 -0.000005 2.112770 4.966896 -46.065787 2.115555 4.969558 -46.097981 0.000001 -0.000001 0.000000 3.235043 5.839727 -57.941130 3.235014 5.839737 -57.941109 -0.000002 -0.000002 0.000001 8.180595 7.891760 -68.571800 4.391817 2.329790 -68.807783 -0.000001 -0.000000 0.000001 -0.000001 0.000001 0.000003 1.688008 9.412954 -11.108891 -40.309618 13.402443 69.501867 0.044824 89.835661 -0.044946 -39.811813 -22.953889 -27.588649 -9.351084 6.858435 10.462939 15.052256 -24.691166 -3.041866 -0.000001 -0.000001 -0.000001 0.159502 13.637839 0.148468 2.934839 -5.676555 54.650792 -0.000001 -0.000001 0.000002 3.931563 -6.262145 64.212931 3.931581 -6.262101 64.212944 -0.000002 0.000001 0.000003 4.016479 -6.302171 64.988854 4.016469 -6.302179 64.988854 0.000001 -0.000000 0.000009 4.517395 -6.511112 69.475858 4.517434 -6.511104 69.475899 0.000003 -0.000001 0.000002 -0.000003 -0.000001 0.000001 0.000001 -0.000000 -0.000000 0.000001 -0.000000 -0.000000 0.000001 -0.000000 -0.000000 0.000001 -0.000000 -0.000000 0.000001 -0.000000 -0.000000 -0.000001 -0.000001 0.000000 0.000001 -0.000000 -0.000000 0.000001 -0.000000 -0.000000 -0.000001 -0.000001 0.000000 0.000000 -0.000000 0.000000 0.000000 -0.000000 0.000000 0.000000 -0.000001 -0.000000 
0.232758 46.642250 0.907688 -7.852775 3.752394 3.376127 0.000000 0.000001 0.000000 -86.695079 1.024130 20.678796 100.701679 5.148441 -7.623063 -6.542384 5.815942 7.004861 -0.000000 -0.000000 0.000000 -0.000000 -0.000000 0.000000 -0.000001 -0.000001 0.000000 -90.955853 -0.954317 -20.581213 96.339067 -4.822272 2.579924 0.028760 -0.030200 -9.231002 -0.000000 0.000002 0.000000 -0.000000 0.000002 0.000000 -0.000000 -0.000000 -0.000000 17.428213 3.885472 -5.025204 5.264589 0.538907 1.861095 5.245890 0.647292 1.876118 0.618964 -1.220484 -1.029886 -12.613427 -8.944445 1.003987 0.000001 0.000000 0.000000 0.000001 0.000000 0.000000 0.000001 0.000000 0.000000 0.859112 -5.427374 5.891147 -51.864324 -34.929072 -71.185837 0.000112 -75.882958 0.000109 -40.193932 17.914811 19.751159 8.033892 -4.085225 -15.484715 5.414551 26.673023 3.960304 -0.000001 0.000001 0.000001 -0.525442 -14.178916 -2.998507 2.185376 5.035589 -46.898654 0.000000 0.000001 -0.000005 2.112768 4.966896 -46.065784 2.115555 4.969564 -46.097985 0.000001 0.000000 -0.000003 3.235041 5.839726 -57.941130 3.235015 5.839735 -57.941116 0.000001 -0.000000 -0.000000 8.180591 7.891759 -68.571793 4.391818 2.329790 -68.807783 0.000000 -0.000001 0.000003 -0.000002 0.000002 -0.000001 1.685852 9.400473 -11.101776 -40.240732 13.458629 69.535137 0.028197 89.685274 -0.028755 -39.756393 -22.778763 -27.375586 -9.351075 6.858438 10.462929 15.061617 -25.689465 -4.428104 0.000000 0.000004 -0.000001 0.034194 13.575652 0.681122 3.222435 -5.868986 57.509469 -0.000001 -0.000001 0.000005 3.931566 -6.262098 64.212944 3.931581 -6.262101 64.212944 0.000001 0.000001 -0.000002 4.016478 -6.302158 64.988874 4.016468 -6.302180 64.988854 0.000001 -0.000001 0.000004 4.517403 -6.511095 69.475892 4.517433 -6.511104 69.475899 -0.000001 -0.000000 0.000000 -0.000000 -0.000004 -0.000002 0.000003 -0.000001 0.000000 0.000003 -0.000001 0.000000 0.000003 -0.000001 0.000000 0.000003 -0.000001 0.000000 0.000003 -0.000001 0.000000 0.000001 0.000000 -0.000000 0.000003 -0.000001 0.000000 0.000003 -0.000001 0.000000 0.000001 0.000000 -0.000000 0.000002 0.000001 -0.000000 0.000002 0.000001 -0.000000 0.000000 0.000001 0.000000 
